<svg xmlns="http://www.w3.org/2000/svg" viewBox="0 0 54 54"><defs><style>.a{fill:#44205f;}</style></defs><title>spinning-mill</title><path class="a" d="M39.46,48.38a2.51,2.51,0,0,1-.59-.53Q33.43,39.09,28,30.31a1.58,1.58,0,0,1-.15-.28l1.87-1.42c1,.59,2.14,1.22,3.25,1.89a1.23,1.23,0,0,1,.38.62c1.63,4.17,3.24,8.34,4.86,12.51.47,1.21,1,2.42,1.41,3.64a5.57,5.57,0,0,1,.15.91Z"/><path class="a" d="M23.94,26.31c.11.74.2,1.43.32,2.24-1,.51-2.06,1.08-3.14,1.62a.9.9,0,0,1-.49,0L2.86,28c-.32,0-.72-.06-.62-.5a.81.81,0,0,1,.63-.41q10.41-.4,20.84-.75a1.29,1.29,0,0,1,.23,0"/><path class="a" d="M29,24.59l-2-.73c.08-1.21.15-2.5.26-3.79a1.33,1.33,0,0,1,.3-.54l10.5-14c.08-.1.14-.24.24-.28a1,1,0,0,1,.61-.1c.09,0,.12.35.12.54s-.1.23-.16.34q-4.82,9.11-9.65,18.21c-.08.14-.18.27-.23.36"/><path class="a" d="M28,28.67A2,2,0,0,1,25.36,28,1.94,1.94,0,0,1,28.65,26a2,2,0,0,1-.64,2.7"/></svg>